<?xml version="1.0" encoding="UTF-8"?>
<svg version="1.1" xmlns="http://www.w3.org/2000/svg" width="411" height="250">
<path d="M0 0 C15.09675925 6.95857142 30.83978574 9.40255166 47.2694397 10.64813232 C50.97932759 10.93229935 54.68619207 11.25184123 58.39331055 11.56982422 C59.12419388 11.63223297 59.85507721 11.69464172 60.60810852 11.75894165 C78.58212922 13.31230376 96.6555296 15.58170974 113.84643555 21.31201172 C113.84643555 22.63201172 113.84643555 23.95201172 113.84643555 25.31201172 C107.90643555 25.31201172 101.96643555 25.31201172 95.84643555 25.31201172 C101.78643555 27.62201172 107.72643555 29.93201172 113.84643555 32.31201172 C113.84643555 34.62201172 113.84643555 36.93201172 113.84643555 39.31201172 C105.61530231 38.81780289 97.52244547 37.75749372 89.37695312 36.50415039 C69.81460536 33.56779486 50.21777084 32.6439127 30.47955322 31.84228516 C27.50679107 31.72015097 24.53429318 31.59220051 21.56178856 31.46397305 C17.87292572 31.30525117 14.18390091 31.15043529 10.49487305 30.99560547 C9.21550873 30.94141953 7.93614441 30.88723358 6.61801147 30.83140564 C-20.2612011 29.73937022 -47.13173335 29.14328671 -74.03012276 28.87244582 C-78.28081335 28.82875661 -82.53145648 28.7808552 -86.78210449 28.73323059 C-93.99231591 28.65275302 -101.20254165 28.57374393 -108.41278076 28.49578857 C-127.04525952 28.2938163 -145.67758654 28.07886547 -164.30981445 27.85498047 C-165.22450044 27.84400172 -166.13918643 27.83302298 -167.08159018 27.82171154 C-198.73454491 27.44050027 -230.38176436 26.93122656 -262.02856445 26.18701172 C-262.97682854 26.1647414 -263.92509262 26.14247108 -264.90209198 26.11952591 C-275.65299286 25.86583544 -286.40350481 25.59928437 -297.15356445 25.31201172 C-297.15356445 21.68201172 -297.15356445 18.05201172 -297.15356445 14.31201172 C-296.20441162 14.00086426 -295.25525879 13.6897168 -294.27734375 13.36914062 C-270.62177571 5.60426737 -270.62177571 5.60426737 -247.21606445 -2.87548828 C-165.36838875 -33.70451281 -80.15416044 -37.41614815 0 0 Z M-221.15356445 4.31201172 C-222.07246869 6.94588625 -222.07246869 6.94588625 -221.15356445 9.31201172 C-212.79297182 14.88574014 -197.79993185 12.44132062 -187.91918945 12.40966797 C-186.18756145 12.40779868 -184.45593292 12.40637719 -182.7243042 12.40538025 C-178.20677178 12.40159528 -173.68927244 12.3918002 -169.17175293 12.38067627 C-164.54590299 12.37037484 -159.9200476 12.36586408 -155.29418945 12.36083984 C-146.24730006 12.35017359 -137.20043503 12.33314658 -128.15356445 12.31201172 C-128.64897872 7.52297987 -129.15704497 2.77892922 -130.1262207 -1.94189453 C-130.3034668 -2.81523438 -130.48071289 -3.68857422 -130.66333008 -4.58837891 C-130.93693359 -5.90612305 -130.93693359 -5.90612305 -131.21606445 -7.25048828 C-131.40233398 -8.16378906 -131.58860352 -9.07708984 -131.78051758 -10.01806641 C-132.23464549 -12.24212873 -132.69237746 -14.46538104 -133.15356445 -16.68798828 C-161.15917996 -17.6215088 -198.38727271 -13.99441054 -221.15356445 4.31201172 Z M-125.15356445 -16.68798828 C-122.49872552 -0.99512059 -122.49872552 -0.99512059 -116.15356445 13.31201172 C-114.06447146 13.78073777 -114.06447146 13.78073777 -111.61328125 13.72851562 C-110.66488876 13.74511734 -109.71649628 13.76171906 -108.73936462 13.77882385 C-107.70429276 13.78204147 -106.66922089 13.78525909 -105.6027832 13.78857422 C-104.52980484 13.80383652 -103.45682648 13.81909882 -102.35133362 13.83482361 C-98.84793433 13.88214489 -95.34466981 13.90944933 -91.84106445 13.93701172 C-88.23711791 13.98114155 -84.63326432 14.03038051 -81.02938843 14.07991028 C-78.65508229 14.11219642 -76.28075253 14.14279073 -73.90640259 14.17167664 C-65.39753197 14.27818341 -56.90583121 14.51631897 -48.40356445 14.87451172 C-33.32189328 15.48071362 -18.24442548 15.40868127 -3.15356445 15.31201172 C-26.9549123 -9.05936841 -69.77569337 -16.32320697 -102.34106445 -17.43798828 C-103.01686554 -17.46149353 -103.69266663 -17.48499878 -104.38894653 -17.50921631 C-111.4165322 -17.73704087 -118.20747569 -17.85302477 -125.15356445 -16.68798828 Z " fill="#0D5C3A" transform="translate(297.153564453125,75.68798828125)"/>
<path d="M0 0 C5.15625 -0.0825 10.3125 -0.165 15.625 -0.25 C17.24100098 -0.28641602 18.85700195 -0.32283203 20.52197266 -0.36035156 C21.8063623 -0.3703418 23.09075195 -0.38033203 24.4140625 -0.390625 C25.7232666 -0.41157227 27.0324707 -0.43251953 28.38134766 -0.45410156 C33.56970671 0.19698114 36.47119734 2.71258723 40.375 6 C42.9375324 10.73082905 42.77699607 15.73602664 42 21 C40.30501449 24.47892069 39.2607533 25.82616446 36 28 C36.54269531 28.3403125 37.08539063 28.680625 37.64453125 29.03125 C42.1047991 32.05298101 45.18219629 34.58355133 46.72265625 39.859375 C47.35281911 44.72316724 46.31262762 48.85244152 43.765625 53.01953125 C40.50234509 57.18635371 37.05837214 59.36741387 32 61 C28.26782227 61.34057617 28.26782227 61.34057617 24.31640625 61.29296875 C23.03451416 61.28547607 21.75262207 61.2779834 20.43188477 61.27026367 C18.82498779 61.24295166 17.21809082 61.21563965 15.5625 61.1875 C10.426875 61.125625 5.29125 61.06375 0 61 C0 40.87 0 20.74 0 0 Z M11 6 C11 12.93 11 19.86 11 27 C21.10655744 27.39997923 21.10655744 27.39997923 30 23.375 C31.46949558 19.884948 31.62210801 16.68141563 31 13 C29.79497184 9.95139887 29.79497184 9.95139887 27 8 C21.61173441 6.23774191 16.6720482 6 11 6 Z M11 33 C11 39.93 11 46.86 11 54 C13.35125 54.061875 15.7025 54.12375 18.125 54.1875 C18.85348145 54.21481201 19.58196289 54.24212402 20.33251953 54.27026367 C24.99351288 54.32904756 28.08777841 53.51334117 32 51 C34.45572786 47.00944222 35.1217764 44.91332298 34.5 40.25 C32.78834124 36.54140602 31.702146 35.586634 28 34 C24.40637548 32.83166916 21.00966387 32.89990336 17.25 32.9375 C14.15625 32.9684375 14.15625 32.9684375 11 33 Z " fill="#2D393A" transform="translate(3,138)"/>
<path d="M0 0 C4.95 -0.103125 9.9 -0.20625 15 -0.3125 C16.54558594 -0.35802002 18.09117187 -0.40354004 19.68359375 -0.45043945 C27.20790034 -0.52628932 33.2431279 -0.43249962 39 5 C43.19577941 9.62611576 44.3541138 12.48981633 44.28515625 18.6171875 C43.63400857 24.05828452 40.25070779 28.6509575 36 32 C33.25 32.75 33.25 32.75 31 33 C34.60097937 39.60179552 38.79781065 45.76916751 43 52 C44.16780352 53.74924156 45.33460822 55.49915074 46.5 57.25 C46.9846875 57.97703125 47.469375 58.7040625 47.96875 59.453125 C48.3090625 59.96359375 48.649375 60.4740625 49 61 C43.78350938 62.59824394 38.97163465 63.56923402 34 61 C28.63508658 55.28942773 19 43.12161293 19 35 C16.36 35 13.72 35 11 35 C11 43.58 11 52.16 11 61 C7.37 61 3.74 61 0 61 C0 40.87 0 20.74 0 0 Z M11 7 C11 13.93 11 20.86 11 28 C20.53025646 28.66140202 20.53025646 28.66140202 29 25 C31.04025925 22.6964815 31.92595943 21.12631407 32.12890625 18.0390625 C31.88793125 14.11043974 31.43787291 12.44939588 28.625 9.5625 C22.88753061 6.14733965 17.52975255 6.92978761 11 7 Z " fill="#2D393A" transform="translate(137,138)"/>
<path d="M0 0 C3.96 0 7.92 0 12 0 C12.33 8.25 12.66 16.5 13 25 C13.33 24.34 13.66 23.68 14 23 C14.66 23 15.32 23 16 23 C16.23332031 22.44828125 16.46664063 21.8965625 16.70703125 21.328125 C18.63749177 17.85212962 21.33664336 15.17609118 24.05957031 12.30151367 C26.11400764 10.11602748 28.0169854 7.9753885 29.72265625 5.50390625 C31.36999611 3.14033167 32.57920729 1.57993235 35 0 C39.74190986 -0.65351569 44.24726311 -0.4746145 49 0 C44.41362634 5.73296707 39.24773328 10.55593115 33.8046875 15.44921875 C32.07298598 17.02415063 30.38016357 18.64467308 28.7578125 20.33203125 C27 22 27 22 25 22 C25 22.66 25 23.32 25 24 C23.5 25.625 23.5 25.625 22 27 C23.219296 28.320904 24.43860349 29.6417974 25.65795898 30.96264648 C26.73057617 32.12474439 27.80300066 33.28702017 28.87524414 34.44946289 C31.67672739 37.4860699 34.4811016 40.5198785 37.29296875 43.546875 C38.08429199 44.40019409 38.08429199 44.40019409 38.89160156 45.27075195 C39.89365096 46.35113591 40.89683681 47.43046737 41.90136719 48.50854492 C51 58.32856483 51 58.32856483 51 61 C38.97507553 62.92201662 38.97507553 62.92201662 34.22460938 59.85302734 C30.809342 56.81149474 28.0054442 53.26935805 25.25 49.6328125 C23.60805617 47.48802337 21.81472732 45.49927586 20 43.5 C17.5769628 40.72360321 15.30844293 37.88555366 13 35 C12.67 43.58 12.34 52.16 12 61 C8.04 61 4.08 61 0 61 C0 40.87 0 20.74 0 0 Z " fill="#2E3A3B" transform="translate(273,138)"/>
<path d="M0 0 C1.23556641 0.01740234 1.23556641 0.01740234 2.49609375 0.03515625 C3.32238281 0.04417969 4.14867188 0.05320313 5 0.0625 C5.63808594 0.07410156 6.27617188 0.08570313 6.93359375 0.09765625 C7.23015869 0.82654053 7.52672363 1.5554248 7.83227539 2.30639648 C9.21985452 5.71612984 10.60795275 9.12565161 11.99609375 12.53515625 C12.24724945 13.15234528 12.49840515 13.7695343 12.75717163 14.40542603 C15.4548226 21.03417102 18.15940167 27.65964476 20.90771484 34.26757812 C23.49240598 40.48769682 25.98742135 46.73499632 28.37109375 53.03515625 C28.76035034 54.0574231 28.76035034 54.0574231 29.1574707 55.1003418 C30.93359375 59.85438838 30.93359375 59.85438838 30.93359375 62.09765625 C26.97359375 62.09765625 23.01359375 62.09765625 18.93359375 62.09765625 C18.11526653 60.20433091 17.30417107 58.30787892 16.49609375 56.41015625 C15.81740234 54.82654297 15.81740234 54.82654297 15.125 53.2109375 C13.93359375 50.09765625 13.93359375 50.09765625 12.93359375 45.09765625 C5.01359375 45.42765625 -2.90640625 45.75765625 -11.06640625 46.09765625 C-12.99898263 51.31712598 -12.99898263 51.31712598 -14.92553711 56.53881836 C-16.95529514 61.98654514 -16.95529514 61.98654514 -18.06640625 63.09765625 C-20.73699476 63.23880786 -23.39072863 63.14012732 -26.06640625 63.09765625 C-24.07317508 56.9843554 -21.93590801 50.94218529 -19.66796875 44.92578125 C-19.35113129 44.08150574 -19.03429382 43.23723022 -18.70785522 42.36737061 C-18.0413614 40.59227955 -17.37408409 38.81748248 -16.70605469 37.04296875 C-15.69948617 34.36911975 -14.69522522 31.69441355 -13.69140625 29.01953125 C-12.10839368 24.80397338 -10.52050776 20.590284 -8.92834473 16.37817383 C-8.3725238 14.90758233 -7.81737837 13.43673527 -7.26306152 11.96557617 C-6.56232747 10.10748823 -5.8574976 8.25094636 -5.15234375 6.39453125 C-4.76868652 5.38229492 -4.3850293 4.37005859 -3.98974609 3.32714844 C-2.66395352 0.12589572 -2.66395352 0.12589572 0 0 Z M-0.06640625 14.09765625 C-1.40231938 17.74254956 -2.73470433 21.38872244 -4.06640625 25.03515625 C-4.63875 26.5965332 -4.63875 26.5965332 -5.22265625 28.18945312 C-5.58359375 29.17880859 -5.94453125 30.16816406 -6.31640625 31.1875 C-6.6515625 32.10394287 -6.98671875 33.02038574 -7.33203125 33.96459961 C-8.12066131 35.87925588 -8.12066131 35.87925588 -8.06640625 37.09765625 C-2.45640625 37.09765625 3.15359375 37.09765625 8.93359375 37.09765625 C7.45812072 30.8936997 7.45812072 30.8936997 5.42578125 25.03515625 C5.16152344 24.38417969 4.89726563 23.73320312 4.625 23.0625 C4.22087891 22.08990234 4.22087891 22.08990234 3.80859375 21.09765625 C3.53144531 20.41832031 3.25429687 19.73898438 2.96875 19.0390625 C2.29517115 17.38995566 1.61508046 15.74351096 0.93359375 14.09765625 C0.60359375 14.09765625 0.27359375 14.09765625 -0.06640625 14.09765625 Z " fill="#323D3E" transform="translate(88.06640625,136.90234375)"/>
<path d="M0 0 C2.97851562 0.24414062 2.97851562 0.24414062 5.95703125 0.48828125 C9.41998911 7.65979681 12.54990393 14.8309456 15.27050781 22.32128906 C17.08449463 27.26747278 19.02078797 32.15853211 21.00390625 37.0390625 C21.27548553 37.70924911 21.54706482 38.37943573 21.82687378 39.06993103 C22.93691716 41.80809919 24.04729874 44.54602028 25.17120361 47.27853394 C25.96783222 49.21583951 26.7560213 51.15640201 27.54296875 53.09765625 C28.00751465 54.23170898 28.47206055 55.36576172 28.95068359 56.53417969 C29.95703125 59.48828125 29.95703125 59.48828125 29.95703125 63.48828125 C25.99703125 63.15828125 22.03703125 62.82828125 17.95703125 62.48828125 C15.97703125 57.20828125 13.99703125 51.92828125 11.95703125 46.48828125 C4.03703125 46.15828125 -3.88296875 45.82828125 -12.04296875 45.48828125 C-12.70296875 48.45828125 -13.36296875 51.42828125 -14.04296875 54.48828125 C-15.11328125 57.3359375 -15.11328125 57.3359375 -16.16796875 59.55078125 C-16.52117187 60.30488281 -16.874375 61.05898437 -17.23828125 61.8359375 C-17.50382812 62.38121094 -17.769375 62.92648438 -18.04296875 63.48828125 C-20.68296875 63.48828125 -23.32296875 63.48828125 -26.04296875 63.48828125 C-25.40525513 59.86512424 -24.43463682 56.57643716 -23.14111328 53.13476562 C-22.75045685 52.09018188 -22.35980042 51.04559814 -21.95730591 49.96936035 C-21.53440277 48.85154175 -21.11149963 47.73372314 -20.67578125 46.58203125 C-20.02269485 44.84584534 -20.02269485 44.84584534 -19.35641479 43.07458496 C-18.19988087 40.00446511 -17.03946961 36.93584284 -15.87792969 33.86761475 C-15.16900905 31.99103502 -14.4635108 30.11320661 -13.75927734 28.23486328 C-12.40320958 24.61947533 -11.04049748 21.00666228 -9.67578125 17.39453125 C-9.04749924 15.71780334 -9.04749924 15.71780334 -8.40652466 14.00720215 C-8.0095639 12.96261841 -7.61260315 11.91803467 -7.20361328 10.84179688 C-6.85799347 9.92644165 -6.51237366 9.01108643 -6.15628052 8.06799316 C-2.98200504 0.71271631 -2.98200504 0.71271631 0 0 Z M-1.04296875 14.48828125 C-2.18916688 17.75898686 -3.33486433 21.02986764 -4.48046875 24.30078125 C-4.80595703 25.22955078 -5.13144531 26.15832031 -5.46679688 27.11523438 C-5.77939453 28.00791016 -6.09199219 28.90058594 -6.4140625 29.8203125 C-6.7020874 30.64249268 -6.9901123 31.46467285 -7.28686523 32.31176758 C-7.88479374 34.03295989 -8.46677247 35.75969242 -9.04296875 37.48828125 C-3.10296875 37.48828125 2.83703125 37.48828125 8.95703125 37.48828125 C8.02890625 34.80703125 7.10078125 32.12578125 6.14453125 29.36328125 C5.85860107 28.53038574 5.5726709 27.69749023 5.27807617 26.83935547 C3.77787665 22.54912266 2.09755617 18.51221098 -0.04296875 14.48828125 C-0.37296875 14.48828125 -0.70296875 14.48828125 -1.04296875 14.48828125 Z " fill="#323F3F" transform="translate(362.04296875,136.51171875)"/>
<path d="M0 0 C0.680625 0.01289063 1.36125 0.02578125 2.0625 0.0390625 C2.743125 0.02617187 3.42375 0.01328125 4.125 0 C7.1285531 1.0294436 7.69295553 2.86790921 9.0625 5.6640625 C9.9425603 7.83318549 10.76952133 10.02411261 11.5625 12.2265625 C14.48270728 20.21207955 17.57157195 28.12815103 20.6875 36.0390625 C21.38842773 37.82098999 21.38842773 37.82098999 22.10351562 39.63891602 C22.55662109 40.78932373 23.00972656 41.93973145 23.4765625 43.125 C23.91129883 44.23456055 24.34603516 45.34412109 24.79394531 46.48730469 C25.61155045 48.5347793 26.45298521 50.57297656 27.32324219 52.59863281 C27.69868164 53.47874023 28.07412109 54.35884766 28.4609375 55.265625 C28.96246338 56.40378662 28.96246338 56.40378662 29.47412109 57.56494141 C30.0625 59.6640625 30.0625 59.6640625 29.0625 63.6640625 C25.4325 63.3340625 21.8025 63.0040625 18.0625 62.6640625 C16.0825 57.3840625 14.1025 52.1040625 12.0625 46.6640625 C4.1425 46.3340625 -3.7775 46.0040625 -11.9375 45.6640625 C-12.4325 48.1390625 -12.4325 48.1390625 -12.9375 50.6640625 C-13.5748098 52.75656302 -14.24271868 54.8399359 -14.9375 56.9140625 C-15.288125 57.97109375 -15.63875 59.028125 -16 60.1171875 C-16.9375 62.6640625 -16.9375 62.6640625 -17.9375 63.6640625 C-20.60808851 63.80521411 -23.26182238 63.70653357 -25.9375 63.6640625 C-23.87360433 56.43679318 -21.45315302 49.39849743 -18.8125 42.36328125 C-18.42433105 41.32387894 -18.03616211 40.28447662 -17.63623047 39.21357727 C-16.82100306 37.03393181 -16.00408508 34.85491797 -15.18554688 32.67651367 C-13.93534453 29.34582007 -12.6939801 26.01191986 -11.453125 22.67773438 C-10.65678278 20.55188368 -9.85992572 18.42622575 -9.0625 16.30078125 C-8.69366699 15.30801682 -8.32483398 14.31525238 -7.94482422 13.29240417 C-3.36170007 1.15219559 -3.36170007 1.15219559 0 0 Z M-0.9375 15.6640625 C-3.5775 22.9240625 -6.2175 30.1840625 -8.9375 37.6640625 C-2.9975 37.6640625 2.9425 37.6640625 9.0625 37.6640625 C7.17924085 32.66822466 7.17924085 32.66822466 5.29345703 27.67333984 C3.79788727 23.69558881 2.37605057 19.70673755 1.0625 15.6640625 C0.4025 15.6640625 -0.2575 15.6640625 -0.9375 15.6640625 Z " fill="#333F3F" transform="translate(223.9375,136.3359375)"/>
<path d="M0 0 C3.63 0 7.26 0 11 0 C11 0.99 11 1.98 11 3 C10.01 3.33 9.02 3.66 8 4 C8.495 4.8971875 8.495 4.8971875 9 5.8125 C10 8 10 8 10 11 C10.556875 10.79375 11.11375 10.5875 11.6875 10.375 C14.70758675 9.8852562 16.29422051 10.64711026 19 12 C19.66 12.66 20.32 13.32 21 14 C22.051875 13.38125 22.051875 13.38125 23.125 12.75 C26 12 26 12 29.1875 13.6875 C31.83730535 15.86622884 33.69882964 17.44976518 34.37109375 20.91015625 C34.57797204 27.61544658 32.34566242 32.2765275 29 38 C27.02 37.34 25.04 36.68 23 36 C23.9590625 34.7315625 23.9590625 34.7315625 24.9375 33.4375 C27.19190314 30.07188397 27.7656499 27.06206847 28 23 C27.505 22.01 27.505 22.01 27 21 C26.01 21.33 25.02 21.66 24 22 C22.74359742 25.01640055 22.74359742 25.01640055 21.8125 28.5625 C21.46832031 29.76003906 21.12414062 30.95757813 20.76953125 32.19140625 C20.38861328 33.58166016 20.38861328 33.58166016 20 35 C17.03 34.67 14.06 34.34 11 34 C11.66 33.030625 12.32 32.06125 13 31.0625 C15.51316476 26.74410421 15.3978512 22.87367725 15 18 C12.58380177 17.74969023 12.58380177 17.74969023 10 18 C6.60122903 23.09815646 7.85067957 28.25339783 9 34 C5.37 34 1.74 34 -2 34 C-1.505 32.865625 -1.01 31.73125 -0.5 30.5625 C1.24646333 25.97905868 1.30300849 21.84813585 1 17 C-3.27763066 16.56480236 -3.27763066 16.56480236 -6.9375 18.5 C-8.88178332 23.07478428 -7.52912696 27.50599447 -5.9375 32 C-5.628125 32.66 -5.31875 33.32 -5 34 C-8.465 34.495 -8.465 34.495 -12 35 C-13.57554035 32.11371599 -14.46276373 29.46657616 -15.125 26.25 C-15.37636719 25.05117188 -15.37636719 25.05117188 -15.6328125 23.828125 C-15.75398437 23.22484375 -15.87515625 22.6215625 -16 22 C-17.32 21.67 -18.64 21.34 -20 21 C-19.63495936 26.66442374 -18.9445679 31.00703705 -16 36 C-17.98 36.66 -19.96 37.32 -22 38 C-22.64834654 36.730447 -23.29357815 35.45930294 -23.9375 34.1875 C-24.29714844 33.47980469 -24.65679687 32.77210937 -25.02734375 32.04296875 C-27.01484833 27.86841095 -27.46787543 24.60077507 -27 20 C-25.22396702 17.02448205 -23.14489623 14.57244812 -20 13 C-18.60311862 13.03129469 -17.20690719 13.09869954 -15.8125 13.1875 C-12.30377661 13.24945178 -10.22735078 12.86493401 -7.25 11 C-4.00984014 9.00605547 -2.68679134 8.5531162 1 9 C1.66 7.35 2.32 5.7 3 4 C1.68 3.34 0.36 2.68 -1 2 C-0.67 1.34 -0.34 0.68 0 0 Z M5 9 C5.33 10.32 5.66 11.64 6 13 C6 11.68 6 10.36 6 9 C5.67 9 5.34 9 5 9 Z " fill="#CD911B" transform="translate(181,0)"/>
<path d="M0 0 C1.65 0 3.3 0 5 0 C5.83819158 1.62249941 6.6704116 3.24808497 7.5 4.875 C7.9640625 5.77992188 8.428125 6.68484375 8.90625 7.6171875 C10 10 10 10 10 12 C13.34810241 10.3259488 14.06171513 6.58655331 15.48828125 3.25 C17 1 17 1 19.60546875 0.125 C20.79076172 0.063125 20.79076172 0.063125 22 0 C23.74096364 1.74096364 23.35611553 4.19113276 23.53515625 6.56640625 C23.62216797 7.69111328 23.70917969 8.81582031 23.79882812 9.97460938 C23.88583984 11.15861328 23.97285156 12.34261719 24.0625 13.5625 C24.15337891 14.75037109 24.24425781 15.93824219 24.33789062 17.16210938 C24.56266136 20.10778905 24.78317196 23.05372674 25 26 C23.02 26 21.04 26 19 26 C18.67 21.05 18.34 16.1 18 11 C15.54373427 14.27502097 13.25111712 17.58451196 11 21 C7.9072219 18.93814793 7.31923802 18.09630198 5.8125 14.875 C5.46832031 14.15054688 5.12414062 13.42609375 4.76953125 12.6796875 C4.38861328 11.84824219 4.38861328 11.84824219 4 11 C3.67 11 3.34 11 3 11 C2.67 15.95 2.34 20.9 2 26 C0.35 26 -1.3 26 -3 26 C-2.69349173 22.22865439 -2.37876767 18.45803873 -2.0625 14.6875 C-1.97548828 13.61564453 -1.88847656 12.54378906 -1.79882812 11.43945312 C-1.71181641 10.41142578 -1.62480469 9.38339844 -1.53515625 8.32421875 C-1.456604 7.37635498 -1.37805176 6.42849121 -1.29711914 5.4519043 C-1 3 -1 3 0 0 Z " fill="#444E4E" transform="translate(106,223)"/>
<path d="M0 0 C-0.66 1.65 -1.32 3.3 -2 5 C-16.85 5 -31.7 5 -47 5 C-47.66 3.35 -48.32 1.7 -49 0 C-35.46794817 -5.08651593 -12.5407224 -8.3604816 0 0 Z " fill="#CD921B" transform="translate(209,39)"/>
<path d="M0 0 C3.29969571 4.14818889 4.41678726 6.90880318 4.125 12.1875 C3.42975158 17.0951359 1.79779709 19.38585953 -1.8125 22.75 C-5.63763352 25.1938353 -9.22621227 24.96454607 -13.58984375 24.3671875 C-17.26200987 23.3474999 -19.16786218 21.46075376 -21.8125 18.75 C-23.66740641 15.04018719 -23.2665091 10.79876607 -22.8125 6.75 C-20.81023142 2.81697243 -18.65830207 -0.03575033 -14.8125 -2.25 C-9.38223611 -4.01116667 -4.49263988 -3.59411191 0 0 Z M-15.8125 3.75 C-18.26915197 7.43497796 -18.51336491 10.46971786 -17.8125 14.75 C-16.01886089 17.5600346 -14.79369065 19.25940468 -11.8125 20.75 C-8.42238731 21.11849051 -6.44609562 21.10014495 -3.4375 19.4375 C-0.81619884 15.10227115 -1.07137701 10.67584772 -1.8125 5.75 C-3.73752269 2.75552026 -4.98154145 2.06959944 -8.25 0.8125 C-11.63129751 0.73002933 -13.14336744 1.7301159 -15.8125 3.75 Z " fill="#454E4E" transform="translate(167.8125,225.25)"/>
<path d="M0 0 C5.625 1.125 5.625 1.125 8.11328125 4.37890625 C8.63857422 5.05244141 9.16386719 5.72597656 9.70507812 6.41992188 C10.50075195 7.48049805 10.50075195 7.48049805 11.3125 8.5625 C11.86228516 9.27341797 12.41207031 9.98433594 12.97851562 10.71679688 C14.33077139 12.46884999 15.66697877 14.23326851 17 16 C17.33 10.72 17.66 5.44 18 0 C19.32 0 20.64 0 22 0 C22 8.58 22 17.16 22 26 C17 26 17 26 15.33081055 24.53125 C14.85426025 23.8609375 14.37770996 23.190625 13.88671875 22.5 C13.0987793 21.4171875 13.0987793 21.4171875 12.29492188 20.3125 C11.76447266 19.549375 11.23402344 18.78625 10.6875 18 C10.13771484 17.236875 9.58792969 16.47375 9.02148438 15.6875 C7.66635357 13.80210062 6.33122372 11.90235479 5 10 C4.67 15.28 4.34 20.56 4 26 C2.35 26 0.7 26 -1 26 C-0.67 17.42 -0.34 8.84 0 0 Z " fill="#596362" transform="translate(279,223)"/>
<path d="M0 0 C1.65 0 3.3 0 5 0 C5.01981934 0.59538574 5.03963867 1.19077148 5.06005859 1.80419922 C5.15516126 4.49492153 5.26489842 7.18485148 5.375 9.875 C5.4059375 10.81214844 5.436875 11.74929687 5.46875 12.71484375 C5.50742188 13.61074219 5.54609375 14.50664062 5.5859375 15.4296875 C5.6173584 16.25710449 5.6487793 17.08452148 5.68115234 17.93701172 C5.82599137 20.21986085 5.82599137 20.21986085 8 22 C11 22.33333333 11 22.33333333 14 22 C16.43914492 19.56085508 16.28662523 18.78553569 16.4140625 15.4296875 C16.45273438 14.53378906 16.49140625 13.63789063 16.53125 12.71484375 C16.5621875 11.77769531 16.593125 10.84054688 16.625 9.875 C16.66367188 8.93011719 16.70234375 7.98523438 16.7421875 7.01171875 C16.83661346 4.67467625 16.92218394 2.33764499 17 0 C18.32 0 19.64 0 21 0 C21.14575327 3.39537852 21.23421542 6.78994902 21.3125 10.1875 C21.35439453 11.14720703 21.39628906 12.10691406 21.43945312 13.09570312 C21.56266543 20.21737461 21.56266543 20.21737461 18.76171875 24.11328125 C14.82926098 26.7998118 11.70450597 27.29883432 7 27 C4.00034378 25.78737302 2.57256237 24.93082068 0.88330078 22.18457031 C-0.12241344 19.69724835 -0.22961231 17.90976013 -0.1953125 15.234375 C-0.18886719 14.34492188 -0.18242187 13.45546875 -0.17578125 12.5390625 C-0.15902344 11.61867187 -0.14226562 10.69828125 -0.125 9.75 C-0.11597656 8.81414062 -0.10695312 7.87828125 -0.09765625 6.9140625 C-0.07413636 4.60911343 -0.04126853 2.3046884 0 0 Z " fill="#424D4D" transform="translate(186,223)"/>
<path d="M0 0 C0.66 0.33 1.32 0.66 2 1 C1.67 2.32 1.34 3.64 1 5 C-2.3 4.67 -5.6 4.34 -9 4 C-9 5.32 -9 6.64 -9 8 C-8.06027344 8.50660156 -8.06027344 8.50660156 -7.1015625 9.0234375 C-6.28429687 9.46945313 -5.46703125 9.91546875 -4.625 10.375 C-3.81289062 10.81585938 -3.00078125 11.25671875 -2.1640625 11.7109375 C0 13 0 13 2 15 C2.41756644 18.75809799 2.54592949 21.09802954 0.5625 24.375 C-3.14116562 26.723666 -6.65287329 27.10055631 -11 27 C-14.0625 26.0625 -14.0625 26.0625 -16 25 C-15.67 23.35 -15.34 21.7 -15 20 C-14.29875 20.33 -13.5975 20.66 -12.875 21 C-9.73996884 22.09044562 -7.29436818 22.15322643 -4 22 C-3.67 20.35 -3.34 18.7 -3 17 C-3.86625 16.7525 -4.7325 16.505 -5.625 16.25 C-9.29926063 14.88916273 -11.9911242 13.51905881 -15 11 C-16.1875 8.0625 -16.1875 8.0625 -16 5 C-12.16875659 -1.2941856 -6.64379244 -0.7488977 0 0 Z " fill="#3F4949" transform="translate(239,223)"/>
<path d="M0 0 C5.61 0 11.22 0 17 0 C17 0.99 17 1.98 17 3 C13.04 3 9.08 3 5 3 C5 5.97 5 8.94 5 12 C7.97 12 10.94 12 14 12 C13.67 12.99 13.34 13.98 13 15 C10.36 15 7.72 15 5 15 C5 17.64 5 20.28 5 23 C8.96 23 12.92 23 17 23 C17 23.99 17 24.98 17 26 C11.39 26 5.78 26 0 26 C0 17.42 0 8.84 0 0 Z " fill="#4F5858" transform="translate(318,223)"/>
<path d="M0 0 C1.65 0 3.3 0 5 0 C5 7.59 5 15.18 5 23 C8.3 23 11.6 23 15 23 C15 23.99 15 24.98 15 26 C10.05 26 5.1 26 0 26 C0 17.42 0 8.84 0 0 Z " fill="#414C4B" transform="translate(52,223)"/>
<path d="M0 0 C1.65 0 3.3 0 5 0 C5 8.58 5 17.16 5 26 C3.35 26 1.7 26 0 26 C0 17.42 0 8.84 0 0 Z " fill="#4B5656" transform="translate(82,223)"/>
<path d="M0 0 C1.65 0 3.3 0 5 0 C5 8.58 5 17.16 5 26 C3.35 26 1.7 26 0 26 C0 17.42 0 8.84 0 0 Z " fill="#475251" transform="translate(257,223)"/>
<path d="M0 0 C1.65 0 3.3 0 5 0 C5 7.59 5 15.18 5 23 C4.67 22.01 4.34 21.02 4 20 C3.01 20.33 2.02 20.66 1 21 C0 20 0 20 -0.11352539 18.05053711 C-0.10567017 16.8015564 -0.10567017 16.8015564 -0.09765625 15.52734375 C-0.09443359 14.62822266 -0.09121094 13.72910156 -0.08789062 12.80273438 C-0.07951172 11.85720703 -0.07113281 10.91167969 -0.0625 9.9375 C-0.05798828 8.98810547 -0.05347656 8.03871094 -0.04882812 7.06054688 C-0.0370011 4.70696935 -0.02052025 2.35351523 0 0 Z " fill="#3E4748" transform="translate(186,223)"/>
<path d="M0 0 C3.63 0 7.26 0 11 0 C11 0.99 11 1.98 11 3 C10.01 3.33 9.02 3.66 8 4 C8.33 4.598125 8.66 5.19625 9 5.8125 C10 8 10 8 10 11 C9.34 11 8.68 11 8 11 C7.67 11.99 7.34 12.98 7 14 C6.34 13.67 5.68 13.34 5 13 C5 12.67 5 12.34 5 12 C3.35 11.67 1.7 11.34 0 11 C0.99 8.69 1.98 6.38 3 4 C1.68 3.34 0.36 2.68 -1 2 C-0.67 1.34 -0.34 0.68 0 0 Z " fill="#CD982D" transform="translate(181,0)"/>
<path d="M0 0 C1.65 0.33 3.3 0.66 5 1 C4.34 1.66 3.68 2.32 3 3 C2.72212332 5.42597951 2.72212332 5.42597951 2.8046875 8.2265625 C2.81113281 9.2578125 2.81757813 10.2890625 2.82421875 11.3515625 C2.84097656 12.43179688 2.85773438 13.51203125 2.875 14.625 C2.88402344 15.71296875 2.89304687 16.8009375 2.90234375 17.921875 C2.92596591 20.61480152 2.95890444 23.30729255 3 26 C1.68 26 0.36 26 -1 26 C-0.67 17.42 -0.34 8.84 0 0 Z " fill="#343E3F" transform="translate(279,223)"/>
<path d="M0 0 C0.66 0.99 1.32 1.98 2 3 C2.99 3 3.98 3 5 3 C5.66 6.63 6.32 10.26 7 14 C3.37 14 -0.26 14 -4 14 C-3.2884375 12.205625 -3.2884375 12.205625 -2.5625 10.375 C-1.26517227 6.93585762 -0.45763049 3.66104396 0 0 Z " fill="#CE982D" transform="translate(183,20)"/>
<path d="M0 0 C0.33 0.66 0.66 1.32 1 2 C-1.69623297 3.68514561 -3.89193524 4.13725624 -7 4.375 C-10.95222599 4.76290366 -12.3270659 6.04068011 -15 9 C-16.32 9 -17.64 9 -19 9 C-17.64908907 4.57883696 -15.86882275 2.51923342 -12 0 C-7.85977859 -1.41639154 -4.24171584 -0.89728604 0 0 Z " fill="#414C4C" transform="translate(165,223)"/>
<path d="M0 0 C1.65 0 3.3 0 5 0 C9.46015566 7.3697851 9.46015566 7.3697851 8.75 12 C8.5025 12.99 8.255 13.98 8 15 C6.66666667 15 5.33333333 15 4 15 C3.86722656 14.38511719 3.73445312 13.77023438 3.59765625 13.13671875 C3.42105469 12.32847656 3.24445313 11.52023438 3.0625 10.6875 C2.88847656 9.88699219 2.71445313 9.08648437 2.53515625 8.26171875 C2.00113841 5.854599 2.00113841 5.854599 1 3 C0.34 3 -0.32 3 -1 3 C-0.67 2.01 -0.34 1.02 0 0 Z " fill="#374142" transform="translate(163,225)"/>
<path d="M0 0 C0.33 0.66 0.66 1.32 1 2 C1.66 2 2.32 2 3 2 C4.35091528 4.70183055 4.33858058 7.11808206 4.5625 10.125 C4.64628906 11.22070312 4.73007813 12.31640625 4.81640625 13.4453125 C4.87699219 14.28835937 4.93757812 15.13140625 5 16 C3.02 16 1.04 16 -1 16 C-1.02685095 13.52076199 -1.04676547 11.0418116 -1.0625 8.5625 C-1.07506836 7.50192383 -1.07506836 7.50192383 -1.08789062 6.41992188 C-1.09653588 4.61306441 -1.05220011 2.80612397 -1 1 C-0.67 0.67 -0.34 0.34 0 0 Z " fill="#353F40" transform="translate(126,233)"/>
<path d="M0 0 C1.051875 0.495 1.051875 0.495 2.125 1 C5.30775326 2.10704461 7.65328734 2.29748557 11 2 C11.66 1.34 12.32 0.68 13 0 C13.99 0.33 14.98 0.66 16 1 C15.8125 2.875 15.8125 2.875 15 5 C10.62748003 7.86946623 5.89193543 6.95147664 1 6 C0.34 5.67 -0.32 5.34 -1 5 C-0.67 3.35 -0.34 1.7 0 0 Z " fill="#434D4C" transform="translate(224,243)"/>
<path d="M0 0 C-0.47610659 4.99911924 -2.03162219 7.97832683 -5 12 C-8.04376178 9.97082548 -8.74810874 9.27417715 -10 6 C-10 4.68 -10 3.36 -10 2 C-8.68 1.67 -7.36 1.34 -6 1 C-6 1.66 -6 2.32 -6 3 C-5.071875 2.2575 -5.071875 2.2575 -4.125 1.5 C-2 0 -2 0 0 0 Z " fill="#3D4747" transform="translate(122,232)"/>
<path d="M0 0 C0.99 0 1.98 0 3 0 C3 7.92 3 15.84 3 24 C2.67 24 2.34 24 2 24 C0.15467286 18.52940419 -0.25309068 13.81180072 -0.125 8.0625 C-0.11597656 7.28326172 -0.10695313 6.50402344 -0.09765625 5.70117188 C-0.07433691 3.80064553 -0.03847586 1.90027992 0 0 Z M-1 18 C1 19 1 19 1 19 Z " fill="#202B2C" transform="translate(297,224)"/>
<path d="M0 0 C1.65 0 3.3 0 5 0 C5.69965443 1.26418246 6.38434763 2.53665402 7.0625 3.8125 C7.63677734 4.87404297 7.63677734 4.87404297 8.22265625 5.95703125 C9 8 9 8 8 11 C7.34 11 6.68 11 6 11 C5.67 11.66 5.34 12.32 5 13 C4.34 12.34 3.68 11.68 3 11 C2.67 11 2.34 11 2 11 C1.93941406 10.37351563 1.87882812 9.74703125 1.81640625 9.1015625 C1.73261719 8.28429687 1.64882812 7.46703125 1.5625 6.625 C1.48128906 5.81289062 1.40007812 5.00078125 1.31640625 4.1640625 C1.10909886 1.95727195 1.10909886 1.95727195 0 0 Z " fill="#4C5657" transform="translate(106,223)"/>
<path d="M0 0 C7.92 0 15.84 0 24 0 C24 0.66 24 1.32 24 2 C23.01604248 2.02187378 23.01604248 2.02187378 22.01220703 2.04418945 C19.04919969 2.11851414 16.08733883 2.21522369 13.125 2.3125 C12.09246094 2.33505859 11.05992187 2.35761719 9.99609375 2.38085938 C8.51689453 2.4340332 8.51689453 2.4340332 7.0078125 2.48828125 C6.09660645 2.51446533 5.18540039 2.54064941 4.24658203 2.56762695 C3.50520996 2.71031006 2.76383789 2.85299316 2 3 C1.34 3.99 0.68 4.98 0 6 C0 4.02 0 2.04 0 0 Z " fill="#273334" transform="translate(138,138)"/>
<path d="M0 0 C1.9375 0.8125 1.9375 0.8125 3.9375 2.8125 C4.0625 6.4375 4.0625 6.4375 3.9375 9.8125 C2.6175 9.8125 1.2975 9.8125 -0.0625 9.8125 C-0.145 9.02875 -0.2275 8.245 -0.3125 7.4375 C-0.79056339 4.66500896 -0.79056339 4.66500896 -3.125 3.5 C-3.764375 3.273125 -4.40375 3.04625 -5.0625 2.8125 C-2.62182203 -0.23834746 -2.62182203 -0.23834746 0 0 Z " fill="#364141" transform="translate(237.0625,235.1875)"/>
<path d="M0 0 C0.9796875 -0.00257813 1.959375 -0.00515625 2.96875 -0.0078125 C5.5 0.125 5.5 0.125 7.5 1.125 C7.17 2.445 6.84 3.765 6.5 5.125 C5.80132812 5.04121094 5.10265625 4.95742187 4.3828125 4.87109375 C3.47273437 4.76925781 2.56265625 4.66742188 1.625 4.5625 C0.72007812 4.45808594 -0.18484375 4.35367188 -1.1171875 4.24609375 C-3.51653057 3.92825148 -3.51653057 3.92825148 -5.5 5.125 C-5.5 4.135 -5.5 3.145 -5.5 2.125 C-6.16 1.795 -6.82 1.465 -7.5 1.125 C-4.89080172 -0.17959914 -2.91057385 -0.0076594 0 0 Z " fill="#444F4E" transform="translate(233.5,222.875)"/>
<path d="M0 0 C0.33 0 0.66 0 1 0 C1.33 1.98 1.66 3.96 2 6 C2.99 6.33 3.98 6.66 5 7 C3.73058503 10.91402949 2.48832306 12.79072873 -1 15 C-1 14.01 -1 13.02 -1 12 C-1.66 11.67 -2.32 11.34 -3 11 C-2.34 10.34 -1.68 9.68 -1 9 C-0.53993654 6.79749008 -0.53993654 6.79749008 -0.375 4.375 C-0.30023438 3.55773437 -0.22546875 2.74046875 -0.1484375 1.8984375 C-0.09945312 1.27195313 -0.05046875 0.64546875 0 0 Z " fill="#5B6464" transform="translate(166,233)"/>
<path d="M0 0 C0.99 1.32 1.98 2.64 3 4 C-1.22949995 6.41685712 -4.12335991 7.34833144 -9 7 C-9.33 6.34 -9.66 5.68 -10 5 C-8.906875 4.9175 -7.81375 4.835 -6.6875 4.75 C-2.96723336 4.36310791 -2.96723336 4.36310791 -1.0625 1.9375 C-0.711875 1.298125 -0.36125 0.65875 0 0 Z " fill="#515A5A" transform="translate(202,243)"/>
<path d="M0 0 C2.475 0.495 2.475 0.495 5 1 C5 2.32 5 3.64 5 5 C-2.26 4.67 -9.52 4.34 -17 4 C-17 3.67 -17 3.34 -17 3 C-8.585 2.505 -8.585 2.505 0 2 C0 1.34 0 0.68 0 0 Z " fill="#678F79" transform="translate(406,96)"/>
<path d="M0 0 C4.95 0 9.9 0 15 0 C15 0.33 15 0.66 15 1 C9.06 1.495 9.06 1.495 3 2 C2.67 4.64 2.34 7.28 2 10 C0 8 0 8 -0.1953125 6.0546875 C-0.13020833 4.03645833 -0.06510417 2.01822917 0 0 Z " fill="#1A2525" transform="translate(319,224)"/>
<path d="M0 0 C1.32 0.33 2.64 0.66 4 1 C3.8125 2.875 3.8125 2.875 3 5 C-0.6617375 7.09242143 -3.84532871 7.19324053 -8 7 C-8 6.34 -8 5.68 -8 5 C-4.535 4.505 -4.535 4.505 -1 4 C-0.67 2.68 -0.34 1.36 0 0 Z " fill="#555E5E" transform="translate(236,243)"/>
<path d="M0 0 C4.62 0 9.24 0 14 0 C11 3 11 3 8.08203125 3.07421875 C7.00308594 2.94660156 5.92414063 2.81898438 4.8125 2.6875 C3.72582031 2.56761719 2.63914062 2.44773438 1.51953125 2.32421875 C0.68808594 2.21722656 -0.14335937 2.11023438 -1 2 C-0.67 1.34 -0.34 0.68 0 0 Z " fill="#333E3E" transform="translate(308,138)"/>
<path d="M0 0 C0.99 0.495 0.99 0.495 2 1 C2.28919928 2.99226169 2.57264551 4.98722182 2.75390625 6.9921875 C2.9575063 9.20329268 2.9575063 9.20329268 4 12 C2.68 12 1.36 12 0 12 C0 8.04 0 4.08 0 0 Z " fill="#232E2F" transform="translate(82,237)"/>
<path d="M0 0 C-0.4794463 4.21912747 -1.16625119 6.79663178 -4 10 C-4 7.03 -4 4.06 -4 1 C-2 0 -2 0 0 0 Z " fill="#1F2A2B" transform="translate(150,231)"/>
<path d="M0 0 C0.33 0.66 0.66 1.32 1 2 C-1.35438733 3.42944945 -2.48032433 4.08661261 -5.25 3.625 C-5.8275 3.41875 -6.405 3.2125 -7 3 C-6.01 3 -5.02 3 -4 3 C-4 2.34 -4 1.68 -4 1 C-6.64 1 -9.28 1 -12 1 C-12 0.67 -12 0.34 -12 0 C-7.74936599 -1.15926382 -4.29942266 -0.90949326 0 0 Z " fill="#5F6868" transform="translate(165,223)"/>
<path d="M0 0 C0.33 0 0.66 0 1 0 C1.33 3.96 1.66 7.92 2 12 C1.34 12 0.68 12 0 12 C0 11.01 0 10.02 0 9 C-0.66 9 -1.32 9 -2 9 C-2 7.68 -2 6.36 -2 5 C-1.34 5 -0.68 5 0 5 C0 3.35 0 1.7 0 0 Z " fill="#535D5D" transform="translate(129,237)"/>
<path d="M0 0 C1.50433594 0.01353516 1.50433594 0.01353516 3.0390625 0.02734375 C3.80992187 0.03894531 4.58078125 0.05054688 5.375 0.0625 C5.375 0.3925 5.375 0.7225 5.375 1.0625 C2.405 1.0625 -0.565 1.0625 -3.625 1.0625 C-3.955 2.3825 -4.285 3.7025 -4.625 5.0625 C-4.955 4.0725 -5.285 3.0825 -5.625 2.0625 C-6.285 1.7325 -6.945 1.4025 -7.625 1.0625 C-4.98041621 -0.25979189 -2.94738699 -0.03427194 0 0 Z " fill="#5A6363" transform="translate(233.625,222.9375)"/>
<path d="M0 0 C2.125 0.9375 2.125 0.9375 4 2 C2.1875 3.5625 2.1875 3.5625 0 5 C-0.99 4.67 -1.98 4.34 -3 4 C-2.67 3.01 -2.34 2.02 -2 1 C-1.34 0.67 -0.68 0.34 0 0 Z " fill="#CE9429" transform="translate(161,33)"/>
<path d="M0 0 C2.97 0 5.94 0 9 0 C9 0.33 9 0.66 9 1 C7.39125 1.12375 7.39125 1.12375 5.75 1.25 C1.7261549 2.05476902 0.51830747 2.87729874 -2 6 C-1.34 4.02 -0.68 2.04 0 0 Z " fill="#7D8886" transform="translate(86,137)"/>
<path d="M0 0 C0 0.99 0 1.98 0 3 C-1.32 3.33 -2.64 3.66 -4 4 C-4 3.34 -4 2.68 -4 2 C-5.32 1.67 -6.64 1.34 -8 1 C-5.23735711 0.40267181 -2.83967231 0 0 0 Z " fill="#3A4343" transform="translate(165,245)"/>
</svg>
